<?xml version="1.0" encoding="UTF-8"?><svg id="uuid-dffe5f36-7854-46d2-b171-b360edfc8ec2" xmlns="http://www.w3.org/2000/svg" width="89.75mm" height="52.78mm" viewBox="0 0 254.42 149.6"><defs><style>.uuid-616af120-91b8-41bb-8761-0c30c62410d6{fill:#fff;stroke-width:0px;}</style></defs><g id="uuid-39e65e1a-914f-4a68-a8ed-a60898399034"><path class="uuid-616af120-91b8-41bb-8761-0c30c62410d6" d="m240.28,67.3v1.68h1.83v11.47h2.36v-15.04h-1.59c-.37,1.01-.77,1.89-2.6,1.89Z"/><path class="uuid-616af120-91b8-41bb-8761-0c30c62410d6" d="m254.42,69.5v-.47c0-2.41-1.31-3.78-3.7-3.78s-3.7,1.38-3.7,3.78v.47c0,1.48.47,2.49,1.46,3.03-1.03.58-1.46,1.7-1.46,3.14v1.18c0,2.41,1.31,3.78,3.7,3.78s3.7-1.38,3.7-3.78v-1.18c0-1.44-.43-2.56-1.46-3.14.97-.54,1.46-1.55,1.46-3.03Zm-2.36,7.28c-.02,1.33-.58,1.7-1.33,1.7s-1.33-.37-1.33-1.7v-1.4c0-1.18.49-1.7,1.33-1.7s1.33.52,1.33,1.7v1.4Zm0-6.83c0,1.2-.58,1.59-1.33,1.59s-1.33-.39-1.33-1.59v-.84c0-1.35.58-1.72,1.33-1.72s1.33.37,1.33,1.72v.84Z"/><path class="uuid-616af120-91b8-41bb-8761-0c30c62410d6" d="m3.52,65.24c-2.32,0-3.52,1.38-3.52,3.78v1.46h2.23v-1.61c0-1.07.47-1.48,1.22-1.48s1.22.37,1.22,1.72c0,4.34-4.68,5.07-4.68,9.5v1.85h6.83v-2.15H2.36c-.02-.11-.02-.21-.02-.32,0-2.47,4.71-4.23,4.71-8.96,0-2.41-1.2-3.78-3.52-3.78Z"/><path class="uuid-616af120-91b8-41bb-8761-0c30c62410d6" d="m11.9,65.24c-2.32,0-3.59,1.38-3.59,3.78v7.82c0,2.41,1.27,3.78,3.59,3.78s3.59-1.38,3.59-3.78v-7.82c0-2.41-1.27-3.78-3.59-3.78Zm1.22,11.75c0,1.07-.47,1.48-1.22,1.48s-1.22-.41-1.22-1.48v-8.12c0-1.07.47-1.48,1.22-1.48s1.22.41,1.22,1.48v8.12Z"/><path class="uuid-616af120-91b8-41bb-8761-0c30c62410d6" d="m71.43,135.85c-.08,7.88-2.92,13.75-7.42,13.75h7.43s11.58,0,11.58,0v-25.45h-11.6v11.7Z"/><path class="uuid-616af120-91b8-41bb-8761-0c30c62410d6" d="m191.33,27.76s-.05,0-.07,0v-13.82c.04-7.97,2.89-13.93,7.42-13.93h-18.86v27.75c-6.14,0-14.06,0-22.03,0v11.76c7.97,0,15.89,0,22.03,0h0s11.47,0,11.47,0h0c8.84.38,12.73,6.6,12.73,16.72v6.89h12.26v-6.23c0-17.16-7.91-28.63-24.97-29.14Z"/><path class="uuid-616af120-91b8-41bb-8761-0c30c62410d6" d="m204.04,93.38c0,9.2-3.26,15.13-10.5,16.41v11.9c15.51-1.41,22.76-12.58,22.76-28.98v-10.21h-12.26v10.87Z"/><path class="uuid-616af120-91b8-41bb-8761-0c30c62410d6" d="m191.27,135.5v-25.41s0-2.27,0-2.27v-20.31c.41-6.97,3.06-12.03,7.14-12.2-4.08-.17-6.73-5.23-7.14-12.2v-21.32h-11.43v68.31c-2.61,0-5.53,0-8.64,0l-13.54-31.18c1.23-2.19,2.92-3.52,4.98-3.61-4.07-.17-6.72-5.21-7.14-12.16.01-10.16.04-23.64.04-23.64h0V0h-11.43v27.73c-3.05,0-5.93,0-8.53,0L123.57,0h-16.4v27.73c-2.35,0-4.82,0-7.34,0L87.83,0h-16.4s-7.42,0-7.42,0c4.5,0,7.33,5.87,7.42,13.75v13.99s-.04,0-.04,0c-17.03.44-24.99,11.92-24.99,29.14v6.46c-.46,6.84-3.09,11.79-7.12,11.95,4.03.16,6.67,5.11,7.12,11.95v5.45c0,17.19,7.94,28.67,24.91,29.14,0,0,.07,0,.12,0h0s11.6.01,11.6.01h0c7.15,0,16.36,0,24.14,0v27.73h11.6v-25.91h0v-15.87h0v-10.22l5.61,12.51c-.91,0-1.45,0-1.46,0-.04,0-.75,0-1.89,0v11.76c1.19,0,1.93,0,1.93,0,.07,0,2.63,0,6.69,0v.03h10.9v-.03c1.14,0,2.32,0,3.54,0v8.21l-2.56-5.91h-10.85l11.42,25.43h13.42v-49.71l4.59,10.21c-.77,0-1.54,0-2.31,0v11.76c2.55,0,5.1,0,7.59,0v.03h10.9l-.02-.04c1.24,0,2.43,0,3.56,0v8.22l-2.56-5.91h-10.85l11.42,25.43h20.85c-4.57,0-7.43-6.04-7.43-14.1Zm-119.88-25.44c-8.35-.59-12.24-6.77-12.24-16.68v-37.15c0-9.91,3.88-16.08,12.22-16.68,0,0,.05,0,.06,0v23.56c-.41,6.97-3.06,12.04-7.14,12.21,4.08.17,6.73,5.23,7.14,12.21v22.55s-.04,0-.04,0Zm11.64.02V42.78h0v-15.87h0v-8.91l4.38,9.74c-.73,0-1.4,0-2.1,0v11.78c1.41,0,2.85,0,4.36,0h0s15.27,0,15.27,0h0c.76,0,1.51,0,2.25,0v5.21l-1.26-2.92h-12.2l12.36,27.53c-1.21,3.58-3.29,5.88-6.01,5.99,4.09.17,6.74,5.25,7.15,12.24-.01,10.6-.03,22.55-.03,22.55-7.79,0-17,0-24.14-.01Zm61.07-62.62l-2.46-5.68h-12.2l14.65,32.64v35.68c-3.09,0-6.01,0-8.64,0l-16.69-38.59v-32.01h.05v-11.76h-.05v-9.74l4.37,9.74h-.28s-.7,0-1.76,0v11.76c1.25,0,2.04,0,2.09,0,.05,0,2.02,0,5.23,0h0s12.24.01,12.24.01h0c1.12,0,2.27,0,3.44,0v7.96Z"/></g></svg>